<?xml version="1.0" standalone="no"?>
<!DOCTYPE svg PUBLIC "-//W3C//DTD SVG 20010904//EN"
 "http://www.w3.org/TR/2001/REC-SVG-20010904/DTD/svg10.dtd">
<svg version="1.0" xmlns="http://www.w3.org/2000/svg"
 width="500.000000pt" height="500.000000pt" viewBox="0 0 500.000000 500.000000"
 preserveAspectRatio="xMidYMid meet">

<g transform="translate(0.000000,500.000000) scale(0.100000,-0.100000)"
fill="#000000" stroke="none">
<path d="M2333 3650 c-269 -28 -538 -157 -736 -353 -202 -200 -309 -399 -363
-673 -22 -108 -24 -332 -5 -449 17 -106 64 -252 113 -350 39 -77 129 -216 170
-261 20 -22 19 -22 -16 -50 -44 -35 -127 -138 -145 -179 -19 -44 -26 -165 -12
-208 16 -46 93 -132 140 -157 196 -99 529 -51 785 115 l51 33 170 5 c233 8
386 42 555 127 240 120 460 339 578 575 128 259 164 594 92 875 -119 464 -497
829 -960 928 -111 24 -301 34 -417 22z m-657 -2243 c136 -115 309 -202 495
-251 l94 -24 -65 -31 c-115 -54 -217 -74 -349 -69 -144 6 -212 29 -281 97 -82
78 -101 200 -48 305 11 23 25 47 30 53 12 15 13 14 124 -80z"/>
</g>
</svg>
