<svg xmlns="http://www.w3.org/2000/svg" xmlns:v="https://svgstorm.com"
viewBox = "0 0 800 800"
width="800"
height="800">
<g fill="None" fill-opacity="0.0" stroke="#000000" stroke-opacity="0.00" stroke-width="0.3"><path d="
M 0.00 500.00 
L 500.00 500.00
L 500.00 0.00
L 0.00 0.00
L 0.00 500.00
M 263.00 134.00 
C 263.49 134.06 264.50 134.02 265.00 134.00
C 266.86 133.94 267.79 134.70 269.00 135.00
C 273.95 136.22 279.03 136.74 284.00 138.00
C 284.92 138.24 285.41 138.80 286.00 139.00
C 295.59 142.28 304.29 146.04 313.00 151.00
C 315.07 152.18 317.09 153.70 319.00 155.00
C 326.25 159.92 334.07 165.06 340.00 172.00
C 343.13 175.67 346.14 179.31 349.00 183.00
C 350.47 184.90 351.70 187.08 353.00 189.00
C 354.34 190.98 355.80 192.89 357.00 195.00
C 366.34 211.41 372.21 227.00 375.00 246.00
C 375.22 247.49 375.77 248.61 376.00 250.00
C 376.97 255.90 377.24 266.16 376.00 272.00
C 375.83 272.81 375.15 273.14 375.00 274.00
C 372.71 287.23 371.14 299.58 366.00 312.00
C 365.50 313.20 364.50 314.09 364.00 315.00
C 361.09 320.27 358.03 325.88 355.00 331.00
C 354.34 332.11 353.77 332.98 353.00 334.00
C 350.97 336.70 349.13 339.52 347.00 342.00
C 345.95 343.23 344.99 344.79 344.00 346.00
C 340.94 349.73 337.12 354.49 333.00 357.00
C 332.52 357.29 331.35 357.67 331.00 358.00
C 324.68 363.90 318.01 367.50 311.00 372.00
C 309.95 372.67 309.15 373.36 308.00 374.00
C 293.42 382.12 276.91 387.41 260.00 389.00
C 256.31 389.35 249.46 389.50 246.00 389.00 C 242.54 388.50 234.10 390.97 232.00 388.00
C 219.32 401.72 196.98 403.82 180.00 407.00 C 163.01 410.18 133.78 401.17 134.00 384.00
C 134.06 384.17 131.85 383.38 132.00 380.00 C 132.15 376.62 133.47 375.62 134.00 374.00
C 134.31 370.07 136.27 366.89 135.00 363.00
C 138.50 363.86 136.88 360.72 139.00 359.00
C 139.63 358.01 140.33 356.89 141.00 356.00
C 143.03 353.32 145.83 351.35 148.00 349.00
C 149.00 347.70 150.21 346.39 151.00 345.00
C 147.76 341.98 145.07 337.99 143.00 334.00
C 142.50 333.15 142.12 333.32 142.00 332.00
C 141.66 331.46 140.45 330.60 140.00 330.00
C 138.94 328.60 138.54 327.80 138.00 326.00
C 137.39 325.01 136.61 324.10 136.00 323.00
C 127.68 308.06 123.52 293.11 121.00 276.00
C 120.78 274.51 120.23 273.39 120.00 272.00
C 118.75 264.37 120.14 255.27 121.00 248.00
C 122.20 237.83 123.99 224.99 127.93 215.93 C 131.86 206.87 135.35 196.78 141.75 189.75 C 148.15 182.73 151.34 172.23 160.00 168.00
C 160.40 167.80 161.00 168.00 161.00 168.00
C 165.05 162.20 171.36 157.79 177.00 154.00
C 178.32 153.11 179.83 152.73 181.00 152.00
C 182.26 151.22 183.55 149.77 185.00 149.00
C 185.39 148.79 186.00 149.00 186.00 149.00
C 186.26 148.88 186.65 148.03 187.00 148.00
C 187.50 147.95 188.00 148.00 188.00 148.00
C 199.31 138.93 218.78 135.59 233.00 134.00
C 242.92 132.89 253.09 132.82 263.00 134.00 Z"/>
</g>
<g fill="None" fill-opacity="0.0" stroke="#0049BB" stroke-opacity="0.38" stroke-width="0.3"><path d="
M 233.00 134.00 
C 241.29 134.49 254.99 137.41 263.00 134.00
C 253.09 132.82 242.92 132.89 233.00 134.00 Z"/>
</g>
<g fill="None" fill-opacity="0.0" stroke="#1E65C3" stroke-opacity="0.99" stroke-width="0.3"><path d="
M 188.00 148.00 
C 189.27 149.22 185.11 152.41 185.00 149.00
C 183.55 149.77 182.26 151.22 181.00 152.00
C 180.80 152.21 180.87 152.78 179.30 154.30 C 177.73 155.83 176.50 154.16 177.00 154.00
C 171.36 157.79 165.05 162.20 161.00 168.00
C 162.49 169.42 157.37 172.97 156.00 174.00
C 155.73 171.25 159.29 170.32 160.00 168.00
C 151.34 172.23 148.15 182.73 141.75 189.75 C 135.35 196.78 131.86 206.87 127.93 215.93 C 123.99 224.99 122.20 237.83 121.00 248.00
C 121.46 253.99 122.00 261.31 122.00 268.00
C 122.00 270.64 121.08 274.14 121.00 276.00
C 123.52 293.11 127.68 308.06 136.00 323.00
C 136.49 323.53 137.56 324.54 138.00 326.00
C 138.54 327.80 138.94 328.60 140.00 330.00
C 140.60 330.61 141.82 330.02 142.00 332.00
C 142.12 333.32 142.50 333.15 143.00 334.00
C 146.44 335.61 149.64 342.23 153.00 346.00
C 156.61 343.08 160.85 341.08 164.00 338.00
C 140.81 334.26 144.42 303.60 165.00 298.00
C 160.13 293.35 151.81 290.39 150.00 283.00
C 162.13 280.99 171.60 283.00 178.75 292.25 C 185.91 301.49 197.85 300.68 207.68 297.68 C 217.51 294.68 219.18 278.16 232.00 283.00
C 224.54 294.56 212.04 297.83 200.78 302.78 C 189.52 307.73 165.83 291.53 160.70 305.70 C 155.56 319.86 179.31 322.32 192.00 322.00 C 204.69 321.68 224.96 324.38 239.01 325.99 C 253.05 327.61 261.08 344.82 255.67 357.67 C 250.27 370.52 243.39 378.15 233.00 387.00
C 242.19 385.68 251.99 388.30 260.00 389.00
C 276.91 387.41 293.42 382.12 308.00 374.00
C 308.45 373.59 309.76 372.44 311.00 372.00
C 318.01 367.50 324.68 363.90 331.00 358.00
C 334.29 352.91 342.38 345.46 347.00 342.00
C 349.13 339.52 350.97 336.70 353.00 334.00
C 353.47 332.91 354.65 331.35 355.00 331.00
C 358.03 325.88 361.09 320.27 364.00 315.00
C 364.58 312.65 365.32 312.98 366.00 312.00
C 371.14 299.58 372.71 287.23 375.00 274.00
C 374.86 272.59 374.06 270.06 374.00 268.00
C 373.86 263.02 373.90 257.98 374.00 253.00
C 374.05 250.73 374.94 247.51 375.00 246.00
C 372.21 227.00 366.34 211.41 357.00 195.00
C 355.99 193.91 353.77 191.00 353.00 189.00
C 351.70 187.08 350.47 184.90 349.00 183.00
C 344.88 179.91 338.32 173.33 334.00 168.00
C 336.75 167.73 337.68 171.29 340.00 172.00
C 334.07 165.06 326.25 159.92 319.00 155.00
C 316.90 154.20 314.01 151.93 313.00 151.00
C 304.29 146.04 295.59 142.28 286.00 139.00
C 287.13 139.18 280.27 139.30 284.00 138.00
C 279.03 136.74 273.95 136.22 269.00 135.00
C 267.83 135.04 266.34 137.26 265.00 135.00
C 264.78 134.87 265.00 134.00 265.00 134.00
C 264.50 134.02 263.49 134.06 263.00 134.00
C 254.99 137.41 241.29 134.49 233.00 134.00
C 218.78 135.59 199.31 138.93 188.00 148.00
M 291.00 254.00 
C 303.08 232.51 316.92 211.87 328.00 190.00
C 302.88 187.88 269.32 187.29 264.00 218.00
C 259.62 208.89 266.49 196.53 266.00 186.00
C 275.13 186.10 287.17 185.86 296.00 186.00 C 304.83 186.14 318.23 185.74 326.00 186.00 C 333.77 186.26 351.20 183.27 349.07 191.07 C 346.94 198.88 340.88 202.73 338.08 210.08 C 335.27 217.42 329.77 221.19 326.75 228.75 C 323.72 236.30 318.97 239.34 315.70 247.70 C 312.42 256.05 299.50 254.34 291.00 254.00
M 214.00 219.00 
C 229.48 222.72 240.43 238.51 241.00 254.00
C 231.63 255.49 220.80 254.90 219.07 245.93 C 217.35 236.95 212.73 233.62 207.75 227.25 C 202.78 220.88 193.67 217.74 186.00 218.00 C 178.32 218.26 171.58 222.16 166.75 228.75 C 161.92 235.34 161.44 245.85 161.00 254.00
C 155.33 254.00 149.67 254.00 144.00 254.00
C 148.83 224.19 183.20 207.79 211.00 217.00
C 215.67 211.06 223.98 202.91 230.70 200.69 C 237.41 198.48 255.20 191.29 259.75 201.25 C 264.31 211.21 245.34 218.35 237.93 214.07 C 230.51 209.79 216.74 208.26 214.00 219.00
M 229.00 260.00 
C 226.43 264.96 222.95 269.28 220.00 274.00
C 223.17 274.61 227.65 272.75 230.00 275.00
C 226.25 277.22 220.51 275.41 216.00 276.00
C 219.20 271.42 223.05 267.11 225.00 262.00
C 222.26 261.71 216.89 263.35 217.00 259.00
C 220.69 260.44 224.95 259.93 229.00 260.00
M 240.00 259.00 
C 240.63 265.07 244.97 270.00 246.00 276.00
C 241.82 271.22 236.21 271.25 232.00 276.00
C 234.73 270.43 235.92 263.50 240.00 259.00
M 289.00 259.00 
C 290.03 264.98 294.36 269.90 295.00 276.00
C 291.26 270.12 284.90 272.18 281.00 276.00
C 284.04 270.51 285.28 263.86 289.00 259.00
M 316.00 260.00 
C 316.32 263.55 317.39 273.69 315.00 276.00
C 314.74 276.25 314.00 276.00 314.00 276.00
C 311.60 273.67 312.85 256.76 316.00 260.00
M 327.00 259.00 
C 327.63 265.07 331.97 270.00 333.00 276.00
C 328.82 271.22 323.21 271.25 319.00 276.00
C 321.73 270.43 322.92 263.50 327.00 259.00
M 158.00 261.00 
C 146.88 258.21 144.01 276.59 157.00 274.00
C 158.67 270.00 154.13 270.89 154.00 268.00
C 166.90 269.17 152.60 281.54 146.75 273.25 C 140.91 264.95 150.65 256.79 158.00 261.00
M 175.00 276.00 
C 169.49 274.61 166.32 265.31 165.00 276.00
C 160.63 273.52 164.12 264.89 163.00 260.00
C 177.61 256.54 168.67 270.24 175.00 276.00
M 189.00 261.00 
C 187.23 263.03 183.52 261.53 181.00 262.00
C 178.83 268.28 185.21 266.07 188.00 268.00
C 185.07 269.79 178.98 267.78 181.00 274.00
C 183.52 274.56 187.30 272.81 189.00 275.00
C 186.24 277.16 181.51 275.45 178.00 276.00
C 178.00 270.67 178.00 265.33 178.00 260.00
C 181.50 260.62 186.32 258.73 189.00 261.00
M 205.00 261.00 
C 196.81 258.71 189.08 270.83 199.08 273.92 C 209.07 277.02 200.84 267.91 200.00 268.00
C 214.11 267.95 200.26 281.87 193.75 273.25 C 187.24 264.63 197.91 256.78 205.00 261.00
M 261.00 261.00 
C 256.73 262.04 250.40 261.73 251.00 268.00 C 251.61 274.28 256.19 274.65 261.00 273.00
C 258.62 279.31 248.66 275.46 248.08 268.92 C 247.49 262.39 255.20 256.81 261.00 261.00
M 267.00 267.00 
C 273.74 268.52 276.77 266.00 277.00 260.00
C 278.61 264.26 278.70 271.81 277.00 276.00
C 278.39 266.52 264.62 266.58 266.00 276.00
C 264.39 271.74 264.30 264.19 266.00 260.00
C 267.96 261.45 266.56 264.80 267.00 267.00
M 306.00 269.00 
C 306.99 271.58 309.04 273.43 310.00 276.00
C 305.09 274.12 301.10 265.47 300.00 276.00
C 297.75 271.58 299.61 265.18 299.00 260.00
C 305.45 257.13 313.00 264.57 306.00 269.00
M 339.00 260.00 
C 335.85 270.21 349.90 268.53 348.00 260.00
C 349.61 264.26 349.70 271.81 348.00 276.00
C 349.94 267.45 335.86 265.79 339.00 276.00
C 334.21 275.79 334.11 260.23 339.00 260.00
M 295.00 283.00 
C 290.77 290.74 285.64 298.10 282.00 306.00
C 291.88 306.57 303.27 305.24 313.00 306.00 C 322.73 306.76 330.31 304.88 337.75 299.75 C 345.19 294.62 344.57 285.05 352.00 283.00
C 352.00 292.00 352.00 301.00 352.00 310.00
C 321.00 310.00 290.00 310.00 259.00 310.00
C 260.81 300.98 266.44 298.83 269.77 289.77 C 273.11 280.71 286.27 282.78 295.00 283.00 Z"/>
</g>
<g fill="None" fill-opacity="0.0" stroke="#0055C2" stroke-opacity="0.08" stroke-width="0.3"><path d="
M 265.00 135.00 
C 265.98 135.59 267.94 134.55 269.00 135.00
C 267.79 134.70 266.86 133.94 265.00 134.00
C 265.00 134.00 264.78 134.87 265.00 135.00 Z"/>
</g>
<g fill="None" fill-opacity="0.0" stroke="#0553BE" stroke-opacity="0.67" stroke-width="0.3"><path d="
M 269.00 135.00 
C 267.94 134.55 265.98 135.59 265.00 135.00
C 266.34 137.26 267.83 135.04 269.00 135.00 Z"/>
</g>
<g fill="None" fill-opacity="0.0" stroke="#004AC9" stroke-opacity="0.45" stroke-width="0.3"><path d="
M 286.00 139.00 
C 285.41 138.80 284.92 138.24 284.00 138.00
C 280.27 139.30 287.13 139.18 286.00 139.00 Z"/>
</g>
<g fill="None" fill-opacity="0.0" stroke="#2266CC" stroke-opacity="0.06" stroke-width="0.3"><path d="
M 186.00 149.00 
C 186.35 148.97 186.74 148.12 187.00 148.00
C 186.65 148.03 186.26 148.88 186.00 149.00 Z"/>
</g>
<g fill="None" fill-opacity="0.0" stroke="#0E5AC1" stroke-opacity="0.54" stroke-width="0.3"><path d="
M 186.00 149.00 
C 186.00 149.00 185.39 148.79 185.00 149.00
C 185.11 152.41 189.27 149.22 188.00 148.00
C 188.00 148.00 187.50 147.95 187.00 148.00
C 186.74 148.12 186.35 148.97 186.00 149.00 Z"/>
</g>
<g fill="None" fill-opacity="0.0" stroke="#0955BF" stroke-opacity="0.46" stroke-width="0.3"><path d="
M 319.00 155.00 
C 317.09 153.70 315.07 152.18 313.00 151.00
C 314.01 151.93 316.90 154.20 319.00 155.00 Z"/>
</g>
<g fill="None" fill-opacity="0.0" stroke="#1160C9" stroke-opacity="0.46" stroke-width="0.3"><path d="
M 177.00 154.00 
C 176.50 154.16 177.73 155.83 179.30 154.30 C 180.87 152.78 180.80 152.21 181.00 152.00
C 179.83 152.73 178.32 153.11 177.00 154.00 Z"/>
</g>
<g fill="None" fill-opacity="0.0" stroke="#0253BD" stroke-opacity="0.63" stroke-width="0.3"><path d="
M 161.00 168.00 
C 161.00 168.00 160.40 167.80 160.00 168.00
C 159.29 170.32 155.73 171.25 156.00 174.00
C 157.37 172.97 162.49 169.42 161.00 168.00 Z"/>
</g>
<g fill="None" fill-opacity="0.0" stroke="#0A56BD" stroke-opacity="0.53" stroke-width="0.3"><path d="
M 349.00 183.00 
C 346.14 179.31 343.13 175.67 340.00 172.00
C 337.68 171.29 336.75 167.73 334.00 168.00
C 338.32 173.33 344.88 179.91 349.00 183.00 Z"/>
</g>
<g fill="None" fill-opacity="0.0" stroke="#000000" stroke-opacity="1.00" stroke-width="0.3"><path d="
M 291.00 254.00 
C 299.50 254.34 312.42 256.05 315.70 247.70 C 318.97 239.34 323.72 236.30 326.75 228.75 C 329.77 221.19 335.27 217.42 338.08 210.08 C 340.88 202.73 346.94 198.88 349.07 191.07 C 351.20 183.27 333.77 186.26 326.00 186.00 C 318.23 185.74 304.83 186.14 296.00 186.00 C 287.17 185.86 275.13 186.10 266.00 186.00
C 266.49 196.53 259.62 208.89 264.00 218.00
C 269.32 187.29 302.88 187.88 328.00 190.00
C 316.92 211.87 303.08 232.51 291.00 254.00 Z"/>
</g>
<g fill="None" fill-opacity="0.0" stroke="#0042A9" stroke-opacity="0.47" stroke-width="0.3"><path d="
M 357.00 195.00 
C 355.80 192.89 354.34 190.98 353.00 189.00
C 353.77 191.00 355.99 193.91 357.00 195.00 Z"/>
</g>
<g fill="None" fill-opacity="0.0" stroke="#000000" stroke-opacity="1.00" stroke-width="0.3"><path d="
M 214.00 219.00 
C 216.74 208.26 230.51 209.79 237.93 214.07 C 245.34 218.35 264.31 211.21 259.75 201.25 C 255.20 191.29 237.41 198.48 230.70 200.69 C 223.98 202.91 215.67 211.06 211.00 217.00
C 183.20 207.79 148.83 224.19 144.00 254.00
C 149.67 254.00 155.33 254.00 161.00 254.00
C 161.44 245.85 161.92 235.34 166.75 228.75 C 171.58 222.16 178.32 218.26 186.00 218.00 C 193.67 217.74 202.78 220.88 207.75 227.25 C 212.73 233.62 217.35 236.95 219.07 245.93 C 220.80 254.90 231.63 255.49 241.00 254.00
C 240.43 238.51 229.48 222.72 214.00 219.00 Z"/>
</g>
<g fill="None" fill-opacity="0.0" stroke="#004AC4" stroke-opacity="0.50" stroke-width="0.3"><path d="
M 374.00 253.00 
C 374.11 252.56 375.97 250.35 376.00 250.00
C 375.77 248.61 375.22 247.49 375.00 246.00
C 374.94 247.51 374.05 250.73 374.00 253.00 Z"/>
</g>
<g fill="None" fill-opacity="0.0" stroke="#0042B9" stroke-opacity="0.36" stroke-width="0.3"><path d="
M 120.00 272.00 
C 120.01 271.35 121.88 268.64 122.00 268.00
C 122.00 261.31 121.46 253.99 121.00 248.00
C 120.14 255.27 118.75 264.37 120.00 272.00 Z"/>
</g>
<g fill="None" fill-opacity="0.0" stroke="#0045B8" stroke-opacity="0.34" stroke-width="0.3"><path d="
M 374.00 253.00 
C 373.90 257.98 373.86 263.02 374.00 268.00
C 374.10 268.50 376.03 271.64 376.00 272.00
C 377.24 266.16 376.97 255.90 376.00 250.00
C 375.97 250.35 374.11 252.56 374.00 253.00 Z"/>
</g>
<g fill="None" fill-opacity="0.0" stroke="#000104" stroke-opacity="1.00" stroke-width="0.3"><path d="
M 229.00 260.00 
C 224.95 259.93 220.69 260.44 217.00 259.00
C 216.89 263.35 222.26 261.71 225.00 262.00
C 223.05 267.11 219.20 271.42 216.00 276.00
C 220.51 275.41 226.25 277.22 230.00 275.00
C 227.65 272.75 223.17 274.61 220.00 274.00
C 222.95 269.28 226.43 264.96 229.00 260.00 Z"/>
</g>
<g fill="None" fill-opacity="0.0" stroke="#01050F" stroke-opacity="1.00" stroke-width="0.3"><path d="
M 240.00 259.00 
C 235.92 263.50 234.73 270.43 232.00 276.00
C 236.21 271.25 241.82 271.22 246.00 276.00
C 244.97 270.00 240.63 265.07 240.00 259.00
M 240.00 265.00 
C 241.39 267.78 241.24 271.13 237.00 270.00
C 237.75 268.29 237.27 264.76 240.00 265.00 Z"/>
</g>
<g fill="None" fill-opacity="0.0" stroke="#01040E" stroke-opacity="1.00" stroke-width="0.3"><path d="
M 289.00 259.00 
C 285.28 263.86 284.04 270.51 281.00 276.00
C 284.90 272.18 291.26 270.12 295.00 276.00
C 294.36 269.90 290.03 264.98 289.00 259.00
M 290.00 270.00 
C 284.32 271.29 287.21 266.91 288.00 264.00
C 289.29 265.41 290.04 267.86 290.00 270.00 Z"/>
</g>
<g fill="None" fill-opacity="0.0" stroke="#133E7A" stroke-opacity="1.00" stroke-width="0.3"><path d="
M 314.00 276.00 
C 313.68 272.45 312.61 262.31 315.00 260.00
C 315.26 259.75 316.00 260.00 316.00 260.00
C 312.85 256.76 311.60 273.67 314.00 276.00 Z"/>
</g>
<g fill="None" fill-opacity="0.0" stroke="#01050F" stroke-opacity="1.00" stroke-width="0.3"><path d="
M 327.00 259.00 
C 322.92 263.50 321.73 270.43 319.00 276.00
C 323.21 271.25 328.82 271.22 333.00 276.00
C 331.97 270.00 327.63 265.07 327.00 259.00
M 327.00 265.00 
C 328.39 267.78 328.24 271.13 324.00 270.00
C 324.75 268.29 324.27 264.76 327.00 265.00 Z"/>
</g>
<g fill="None" fill-opacity="0.0" stroke="#000207" stroke-opacity="1.00" stroke-width="0.3"><path d="
M 158.00 261.00 
C 150.65 256.79 140.91 264.95 146.75 273.25 C 152.60 281.54 166.90 269.17 154.00 268.00
C 154.13 270.89 158.67 270.00 157.00 274.00
C 144.01 276.59 146.88 258.21 158.00 261.00 Z"/>
</g>
<g fill="None" fill-opacity="0.0" stroke="#010714" stroke-opacity="1.00" stroke-width="0.3"><path d="
M 175.00 276.00 
C 168.67 270.24 177.61 256.54 163.00 260.00
C 164.12 264.89 160.63 273.52 165.00 276.00
C 166.32 265.31 169.49 274.61 175.00 276.00
M 170.00 262.00 
C 172.97 263.62 169.94 269.74 166.99 267.99 C 164.04 266.24 166.29 259.98 170.00 262.00 Z"/>
</g>
<g fill="None" fill-opacity="0.0" stroke="#01050F" stroke-opacity="1.00" stroke-width="0.3"><path d="
M 189.00 261.00 
C 186.32 258.73 181.50 260.62 178.00 260.00
C 178.00 265.33 178.00 270.67 178.00 276.00
C 181.51 275.45 186.24 277.16 189.00 275.00
C 187.30 272.81 183.52 274.56 181.00 274.00
C 178.98 267.78 185.07 269.79 188.00 268.00
C 185.21 266.07 178.83 268.28 181.00 262.00
C 183.52 261.53 187.23 263.03 189.00 261.00 Z"/>
</g>
<g fill="None" fill-opacity="0.0" stroke="#000206" stroke-opacity="1.00" stroke-width="0.3"><path d="
M 205.00 261.00 
C 197.91 256.78 187.24 264.63 193.75 273.25 C 200.26 281.87 214.11 267.95 200.00 268.00
C 200.84 267.91 209.07 277.02 199.08 273.92 C 189.08 270.83 196.81 258.71 205.00 261.00 Z"/>
</g>
<g fill="None" fill-opacity="0.0" stroke="#01050F" stroke-opacity="1.00" stroke-width="0.3"><path d="
M 261.00 261.00 
C 255.20 256.81 247.49 262.39 248.08 268.92 C 248.66 275.46 258.62 279.31 261.00 273.00
C 256.19 274.65 251.61 274.28 251.00 268.00 C 250.40 261.73 256.73 262.04 261.00 261.00 Z"/>
</g>
<g fill="None" fill-opacity="0.0" stroke="#000001" stroke-opacity="1.00" stroke-width="0.3"><path d="
M 267.00 267.00 
C 266.56 264.80 267.96 261.45 266.00 260.00
C 264.30 264.19 264.39 271.74 266.00 276.00
C 264.62 266.58 278.39 266.52 277.00 276.00
C 278.70 271.81 278.61 264.26 277.00 260.00
C 276.77 266.00 273.74 268.52 267.00 267.00 Z"/>
</g>
<g fill="None" fill-opacity="0.0" stroke="#000309" stroke-opacity="1.00" stroke-width="0.3"><path d="
M 306.00 269.00 
C 313.00 264.57 305.45 257.13 299.00 260.00
C 299.61 265.18 297.75 271.58 300.00 276.00
C 301.10 265.47 305.09 274.12 310.00 276.00
C 309.04 273.43 306.99 271.58 306.00 269.00
M 305.00 262.00 
C 307.97 263.62 304.94 269.74 301.99 267.99 C 299.04 266.24 301.29 259.98 305.00 262.00 Z"/>
</g>
<g fill="None" fill-opacity="0.0" stroke="#000000" stroke-opacity="1.00" stroke-width="0.3"><path d="
M 314.00 276.00 
C 314.00 276.00 314.74 276.25 315.00 276.00
C 315.48 270.71 314.52 265.29 315.00 260.00
C 312.61 262.31 313.68 272.45 314.00 276.00 Z"/>
</g>
<g fill="None" fill-opacity="0.0" stroke="#07172C" stroke-opacity="1.00" stroke-width="0.3"><path d="
M 315.00 276.00 
C 317.39 273.69 316.32 263.55 316.00 260.00
C 316.00 260.00 315.26 259.75 315.00 260.00
C 314.52 265.29 315.48 270.71 315.00 276.00 Z"/>
</g>
<g fill="None" fill-opacity="0.0" stroke="#010715" stroke-opacity="1.00" stroke-width="0.3"><path d="
M 339.00 260.00 
C 334.11 260.23 334.21 275.79 339.00 276.00
C 335.86 265.79 349.94 267.45 348.00 276.00
C 349.70 271.81 349.61 264.26 348.00 260.00
C 349.90 268.53 335.85 270.21 339.00 260.00 Z"/>
</g>
<g fill="None" fill-opacity="0.0" stroke="#1D60BA" stroke-opacity="1.00" stroke-width="0.3"><path d="
M 170.00 262.00 
C 166.29 259.98 164.04 266.24 166.99 267.99 C 169.94 269.74 172.97 263.62 170.00 262.00 Z"/>
</g>
<g fill="None" fill-opacity="0.0" stroke="#1D62BD" stroke-opacity="1.00" stroke-width="0.3"><path d="
M 305.00 262.00 
C 301.29 259.98 299.04 266.24 301.99 267.99 C 304.94 269.74 307.97 263.62 305.00 262.00 Z"/>
</g>
<g fill="None" fill-opacity="0.0" stroke="#1955A5" stroke-opacity="1.00" stroke-width="0.3"><path d="
M 290.00 270.00 
C 290.04 267.86 289.29 265.41 288.00 264.00
C 287.21 266.91 284.32 271.29 290.00 270.00 Z"/>
</g>
<g fill="None" fill-opacity="0.0" stroke="#1A56A6" stroke-opacity="1.00" stroke-width="0.3"><path d="
M 240.00 265.00 
C 237.27 264.76 237.75 268.29 237.00 270.00
C 241.24 271.13 241.39 267.78 240.00 265.00 Z"/>
</g>
<g fill="None" fill-opacity="0.0" stroke="#1A56A6" stroke-opacity="1.00" stroke-width="0.3"><path d="
M 327.00 265.00 
C 324.27 264.76 324.75 268.29 324.00 270.00
C 328.24 271.13 328.39 267.78 327.00 265.00 Z"/>
</g>
<g fill="None" fill-opacity="0.0" stroke="#0038B0" stroke-opacity="0.51" stroke-width="0.3"><path d="
M 120.00 272.00 
C 120.23 273.39 120.78 274.51 121.00 276.00
C 121.08 274.14 122.00 270.64 122.00 268.00
C 121.88 268.64 120.01 271.35 120.00 272.00 Z"/>
</g>
<g fill="None" fill-opacity="0.0" stroke="#0041C3" stroke-opacity="0.53" stroke-width="0.3"><path d="
M 375.00 274.00 
C 375.15 273.14 375.83 272.81 376.00 272.00
C 376.03 271.64 374.10 268.50 374.00 268.00
C 374.06 270.06 374.86 272.59 375.00 274.00 Z"/>
</g>
<g fill="None" fill-opacity="0.0" stroke="#000000" stroke-opacity="0.99" stroke-width="0.3"><path d="
M 153.00 346.00 
C 151.63 347.11 150.96 348.47 149.00 349.00
C 147.24 353.21 141.64 355.67 139.00 359.00
C 136.88 360.72 138.50 363.86 135.00 363.00
C 136.27 366.89 134.31 370.07 134.00 374.00
C 133.74 377.29 134.04 380.69 134.00 384.00
C 133.78 401.17 163.01 410.18 180.00 407.00 C 196.98 403.82 219.32 401.72 232.00 388.00
C 232.24 387.74 232.75 387.25 233.00 387.00
C 243.39 378.15 250.27 370.52 255.67 357.67 C 261.08 344.82 253.05 327.61 239.01 325.99 C 224.96 324.38 204.69 321.68 192.00 322.00 C 179.31 322.32 155.56 319.86 160.70 305.70 C 165.83 291.53 189.52 307.73 200.78 302.78 C 212.04 297.83 224.54 294.56 232.00 283.00
C 219.18 278.16 217.51 294.68 207.68 297.68 C 197.85 300.68 185.91 301.49 178.75 292.25 C 171.60 283.00 162.13 280.99 150.00 283.00
C 151.81 290.39 160.13 293.35 165.00 298.00
C 144.42 303.60 140.81 334.26 164.00 338.00
C 160.85 341.08 156.61 343.08 153.00 346.00
M 226.00 387.00 
C 224.67 387.73 223.30 388.24 222.00 389.00
C 220.76 389.72 219.36 390.33 218.00 391.00
C 216.66 391.66 215.62 392.46 214.00 393.00
C 211.52 393.83 208.57 393.80 207.00 394.00
C 204.98 394.64 203.18 394.70 201.00 395.00
C 199.96 395.49 199.95 397.72 198.00 397.00
C 192.31 397.67 185.20 399.21 180.00 397.00
C 179.84 397.23 178.50 397.01 178.00 397.00
C 174.96 396.92 169.90 396.48 168.00 394.00
C 167.82 393.76 167.00 394.00 167.00 394.00
C 165.18 393.76 163.63 392.86 162.00 392.00
C 158.81 390.32 156.00 388.09 154.00 385.00
C 153.30 383.92 152.26 382.25 152.00 381.00
C 151.90 380.52 152.11 379.47 152.00 379.00
C 148.12 375.35 148.32 368.31 150.00 363.00
C 151.22 359.13 154.00 355.49 156.00 352.00
C 156.22 351.62 155.85 350.45 156.00 350.00
C 161.88 332.92 187.03 340.38 200.00 341.00 C 212.98 341.61 239.36 338.84 246.77 352.23 C 254.18 365.62 236.08 381.50 226.00 387.00 Z"/>
</g>
<g fill="None" fill-opacity="0.0" stroke="#000000" stroke-opacity="1.00" stroke-width="0.3"><path d="
M 295.00 283.00 
C 286.27 282.78 273.11 280.71 269.77 289.77 C 266.44 298.83 260.81 300.98 259.00 310.00
C 290.00 310.00 321.00 310.00 352.00 310.00
C 352.00 301.00 352.00 292.00 352.00 283.00
C 344.57 285.05 345.19 294.62 337.75 299.75 C 330.31 304.88 322.73 306.76 313.00 306.00 C 303.27 305.24 291.88 306.57 282.00 306.00
C 285.64 298.10 290.77 290.74 295.00 283.00 Z"/>
</g>
<g fill="None" fill-opacity="0.0" stroke="#0357C9" stroke-opacity="0.41" stroke-width="0.3"><path d="
M 364.00 315.00 
C 364.50 314.09 365.50 313.20 366.00 312.00
C 365.32 312.98 364.58 312.65 364.00 315.00 Z"/>
</g>
<g fill="None" fill-opacity="0.0" stroke="#005CB5" stroke-opacity="0.43" stroke-width="0.3"><path d="
M 136.00 323.00 
C 136.61 324.10 137.39 325.01 138.00 326.00
C 137.56 324.54 136.49 323.53 136.00 323.00 Z"/>
</g>
<g fill="None" fill-opacity="0.0" stroke="#0350BB" stroke-opacity="0.47" stroke-width="0.3"><path d="
M 140.00 330.00 
C 140.45 330.60 141.66 331.46 142.00 332.00
C 141.82 330.02 140.60 330.61 140.00 330.00 Z"/>
</g>
<g fill="None" fill-opacity="0.0" stroke="#0D5FC9" stroke-opacity="0.42" stroke-width="0.3"><path d="
M 353.00 334.00 
C 353.77 332.98 354.34 332.11 355.00 331.00
C 354.65 331.35 353.47 332.91 353.00 334.00 Z"/>
</g>
<g fill="None" fill-opacity="0.0" stroke="#255BAA" stroke-opacity="0.44" stroke-width="0.3"><path d="
M 143.00 334.00 
C 145.07 337.99 147.76 341.98 151.00 345.00
C 150.21 346.39 149.00 347.70 148.00 349.00
C 148.16 348.77 149.00 349.00 149.00 349.00
C 150.96 348.47 151.63 347.11 153.00 346.00
C 149.64 342.23 146.44 335.61 143.00 334.00 Z"/>
</g>
<g fill="None" fill-opacity="0.0" stroke="#1E65C3" stroke-opacity="0.98" stroke-width="0.3"><path d="
M 156.00 350.00 
C 159.22 349.01 161.77 355.63 162.00 356.00
C 163.06 357.09 163.79 358.08 165.00 359.00
C 164.34 358.72 165.37 357.08 166.75 358.27 C 168.14 359.46 168.02 361.02 168.00 361.00
C 174.34 366.21 180.66 370.39 188.00 374.00
C 187.84 373.95 193.27 374.44 189.00 375.00
C 194.62 379.85 211.36 386.45 219.00 386.00
C 219.87 385.95 220.07 385.85 221.00 386.00
C 221.93 386.15 225.79 387.01 226.00 387.00
C 236.08 381.50 254.18 365.62 246.77 352.23 C 239.36 338.84 212.98 341.61 200.00 341.00 C 187.03 340.38 161.88 332.92 156.00 350.00 Z"/>
</g>
<g fill="None" fill-opacity="0.0" stroke="#0D5AC0" stroke-opacity="0.62" stroke-width="0.3"><path d="
M 331.00 358.00 
C 331.35 357.67 332.52 357.29 333.00 357.00
C 336.61 353.63 340.62 349.51 344.00 346.00
C 344.99 344.79 345.95 343.23 347.00 342.00
C 342.38 345.46 334.29 352.91 331.00 358.00 Z"/>
</g>
<g fill="None" fill-opacity="0.0" stroke="#105BC2" stroke-opacity="0.07" stroke-width="0.3"><path d="
M 333.00 357.00 
C 337.12 354.49 340.94 349.73 344.00 346.00
C 340.62 349.51 336.61 353.63 333.00 357.00 Z"/>
</g>
<g fill="None" fill-opacity="0.0" stroke="#031534" stroke-opacity="0.12" stroke-width="0.3"><path d="
M 141.00 356.00 
C 143.23 353.58 146.09 351.74 148.00 349.00
C 145.83 351.35 143.03 353.32 141.00 356.00 Z"/>
</g>
<g fill="None" fill-opacity="0.0" stroke="#010619" stroke-opacity="0.47" stroke-width="0.3"><path d="
M 141.00 356.00 
C 140.33 356.89 139.63 358.01 139.00 359.00
C 141.64 355.67 147.24 353.21 149.00 349.00
C 149.00 349.00 148.16 348.77 148.00 349.00
C 146.09 351.74 143.23 353.58 141.00 356.00 Z"/>
</g>
<g fill="None" fill-opacity="0.0" stroke="#265BA3" stroke-opacity="0.47" stroke-width="0.3"><path d="
M 156.00 352.00 
C 157.58 353.27 160.36 354.32 162.00 356.00
C 161.77 355.63 159.22 349.01 156.00 350.00
C 155.85 350.45 156.22 351.62 156.00 352.00 Z"/>
</g>
<g fill="None" fill-opacity="0.0" stroke="#000000" stroke-opacity="0.00" stroke-width="0.3"><path d="
M 150.00 363.00 
C 149.00 368.56 150.82 373.95 152.00 379.00
C 152.11 379.47 151.90 380.52 152.00 381.00
C 152.07 381.17 153.77 382.69 154.00 383.00
C 157.06 386.09 166.83 390.70 168.00 394.00
C 170.55 395.01 174.21 394.70 177.00 395.00
C 177.98 395.11 179.76 394.53 180.00 396.00
C 185.76 395.48 192.36 397.24 198.00 396.00
C 198.22 394.68 200.08 395.12 201.00 395.00
C 203.18 394.70 204.98 394.64 207.00 394.00
C 209.73 393.14 212.94 391.87 216.00 391.00
C 216.23 390.72 216.69 390.20 217.00 390.00
C 218.28 389.18 219.44 388.89 221.00 389.00
C 220.50 387.81 220.26 386.74 219.00 386.00
C 211.36 386.45 194.62 379.85 189.00 375.00
C 188.73 374.76 188.27 374.13 188.00 374.00
C 180.66 370.39 174.34 366.21 168.00 361.00
C 167.09 360.26 165.89 359.68 165.00 359.00
C 163.79 358.08 163.06 357.09 162.00 356.00
C 160.36 354.32 157.58 353.27 156.00 352.00
C 154.00 355.49 151.22 359.13 150.00 363.00 Z"/>
</g>
<g fill="None" fill-opacity="0.0" stroke="#0F58BB" stroke-opacity="0.51" stroke-width="0.3"><path d="
M 165.00 359.00 
C 165.89 359.68 167.09 360.26 168.00 361.00
C 168.02 361.02 168.14 359.46 166.75 358.27 C 165.37 357.08 164.34 358.72 165.00 359.00 Z"/>
</g>
<g fill="None" fill-opacity="0.0" stroke="#2C2C2D" stroke-opacity="0.51" stroke-width="0.3"><path d="
M 152.00 379.00 
C 150.82 373.95 149.00 368.56 150.00 363.00
C 148.32 368.31 148.12 375.35 152.00 379.00 Z"/>
</g>
<g fill="None" fill-opacity="0.0" stroke="#0352BD" stroke-opacity="0.47" stroke-width="0.3"><path d="
M 308.00 374.00 
C 309.15 373.36 309.95 372.67 311.00 372.00
C 309.76 372.44 308.45 373.59 308.00 374.00 Z"/>
</g>
<g fill="None" fill-opacity="0.0" stroke="#105CC1" stroke-opacity="0.56" stroke-width="0.3"><path d="
M 188.00 374.00 
C 188.27 374.13 188.73 374.76 189.00 375.00
C 193.27 374.44 187.84 373.95 188.00 374.00 Z"/>
</g>
<g fill="None" fill-opacity="0.0" stroke="#000000" stroke-opacity="0.39" stroke-width="0.3"><path d="
M 134.00 384.00 
C 134.04 380.69 133.74 377.29 134.00 374.00
C 133.47 375.62 132.15 376.62 132.00 380.00 C 131.85 383.38 134.06 384.17 134.00 384.00 Z"/>
</g>
<g fill="None" fill-opacity="0.0" stroke="#434343" stroke-opacity="0.49" stroke-width="0.3"><path d="
M 154.00 385.00 
C 155.26 386.64 158.25 388.94 160.00 390.00
C 157.90 388.04 155.71 385.24 154.00 383.00
C 153.77 382.69 152.07 381.17 152.00 381.00
C 152.26 382.25 153.30 383.92 154.00 385.00 Z"/>
</g>
<g fill="None" fill-opacity="0.0" stroke="#454545" stroke-opacity="0.17" stroke-width="0.3"><path d="
M 160.00 390.00 
C 160.67 390.41 161.32 390.65 162.00 391.00
C 163.86 391.95 165.51 392.80 167.00 394.00
C 167.00 394.00 167.82 393.76 168.00 394.00
C 166.83 390.70 157.06 386.09 154.00 383.00
C 155.71 385.24 157.90 388.04 160.00 390.00 Z"/>
</g>
<g fill="None" fill-opacity="0.0" stroke="#393939" stroke-opacity="0.87" stroke-width="0.3"><path d="
M 162.00 392.00 
C 161.75 391.80 162.00 391.00 162.00 391.00
C 161.32 390.65 160.67 390.41 160.00 390.00
C 158.25 388.94 155.26 386.64 154.00 385.00
C 156.00 388.09 158.81 390.32 162.00 392.00 Z"/>
</g>
<g fill="None" fill-opacity="0.0" stroke="#5185C8" stroke-opacity="0.36" stroke-width="0.3"><path d="
M 219.00 386.00 
C 220.26 386.74 220.50 387.81 221.00 389.00
C 221.50 389.04 222.00 389.00 222.00 389.00
C 222.35 388.41 221.38 386.41 221.00 386.00
C 220.07 385.85 219.87 385.95 219.00 386.00 Z"/>
</g>
<g fill="None" fill-opacity="0.0" stroke="#9DB7DA" stroke-opacity="0.81" stroke-width="0.3"><path d="
M 222.00 389.00 
C 223.30 388.24 224.67 387.73 226.00 387.00
C 225.79 387.01 221.93 386.15 221.00 386.00
C 221.38 386.41 222.35 388.41 222.00 389.00 Z"/>
</g>
<g fill="None" fill-opacity="0.0" stroke="#044DB4" stroke-opacity="0.41" stroke-width="0.3"><path d="
M 232.00 388.00 
C 234.10 390.97 242.54 388.50 246.00 389.00 C 249.46 389.50 256.31 389.35 260.00 389.00
C 251.99 388.30 242.19 385.68 233.00 387.00
C 232.75 387.25 232.24 387.74 232.00 388.00 Z"/>
</g>
<g fill="None" fill-opacity="0.0" stroke="#506581" stroke-opacity="0.51" stroke-width="0.3"><path d="
M 217.00 390.00 
C 217.22 390.04 217.65 390.94 218.00 391.00
C 219.36 390.33 220.76 389.72 222.00 389.00
C 222.00 389.00 221.50 389.04 221.00 389.00
C 219.44 388.89 218.28 389.18 217.00 390.00 Z"/>
</g>
<g fill="None" fill-opacity="0.0" stroke="#414D5F" stroke-opacity="0.72" stroke-width="0.3"><path d="
M 216.00 391.00 
C 215.64 391.44 214.46 392.75 214.00 393.00
C 215.62 392.46 216.66 391.66 218.00 391.00
C 217.65 390.94 217.22 390.04 217.00 390.00
C 216.69 390.20 216.23 390.72 216.00 391.00 Z"/>
</g>
<g fill="None" fill-opacity="0.0" stroke="#434343" stroke-opacity="0.66" stroke-width="0.3"><path d="
M 162.00 392.00 
C 163.63 392.86 165.18 393.76 167.00 394.00
C 165.51 392.80 163.86 391.95 162.00 391.00
C 162.00 391.00 161.75 391.80 162.00 392.00 Z"/>
</g>
<g fill="None" fill-opacity="0.0" stroke="#424D5E" stroke-opacity="0.43" stroke-width="0.3"><path d="
M 207.00 394.00 
C 208.57 393.80 211.52 393.83 214.00 393.00
C 214.46 392.75 215.64 391.44 216.00 391.00
C 212.94 391.87 209.73 393.14 207.00 394.00 Z"/>
</g>
<g fill="None" fill-opacity="0.0" stroke="#373737" stroke-opacity="0.58" stroke-width="0.3"><path d="
M 178.00 397.00 
C 177.59 396.84 177.26 395.12 177.00 395.00
C 174.21 394.70 170.55 395.01 168.00 394.00
C 169.90 396.48 174.96 396.92 178.00 397.00 Z"/>
</g>
<g fill="None" fill-opacity="0.0" stroke="#646464" stroke-opacity="0.28" stroke-width="0.3"><path d="
M 178.00 397.00 
C 178.50 397.01 179.84 397.23 180.00 397.00
C 180.23 396.66 180.00 396.00 180.00 396.00
C 179.76 394.53 177.98 395.11 177.00 395.00
C 177.26 395.12 177.59 396.84 178.00 397.00 Z"/>
</g>
<g fill="None" fill-opacity="0.0" stroke="#37383D" stroke-opacity="0.32" stroke-width="0.3"><path d="
M 198.00 396.00 
C 197.92 396.49 198.00 397.00 198.00 397.00
C 199.95 397.72 199.96 395.49 201.00 395.00
C 200.08 395.12 198.22 394.68 198.00 396.00 Z"/>
</g>
<g fill="None" fill-opacity="0.0" stroke="#5E5F5F" stroke-opacity="0.67" stroke-width="0.3"><path d="
M 180.00 397.00 
C 185.20 399.21 192.31 397.67 198.00 397.00
C 198.00 397.00 197.92 396.49 198.00 396.00
C 192.36 397.24 185.76 395.48 180.00 396.00
C 180.00 396.00 180.23 396.66 180.00 397.00 Z"/>
</g>
<g fill="#000000" fill-opacity="0.00" stroke="None"><path d="
M 0.00 500.00 
L 500.00 500.00
L 500.00 0.00
L 0.00 0.00
L 0.00 500.00
M 263.00 134.00 
C 263.49 134.06 264.50 134.02 265.00 134.00
C 266.86 133.94 267.79 134.70 269.00 135.00
C 273.95 136.22 279.03 136.74 284.00 138.00
C 284.92 138.24 285.41 138.80 286.00 139.00
C 295.59 142.28 304.29 146.04 313.00 151.00
C 315.07 152.18 317.09 153.70 319.00 155.00
C 326.25 159.92 334.07 165.06 340.00 172.00
C 343.13 175.67 346.14 179.31 349.00 183.00
C 350.47 184.90 351.70 187.08 353.00 189.00
C 354.34 190.98 355.80 192.89 357.00 195.00
C 366.34 211.41 372.21 227.00 375.00 246.00
C 375.22 247.49 375.77 248.61 376.00 250.00
C 376.97 255.90 377.24 266.16 376.00 272.00
C 375.83 272.81 375.15 273.14 375.00 274.00
C 372.71 287.23 371.14 299.58 366.00 312.00
C 365.50 313.20 364.50 314.09 364.00 315.00
C 361.09 320.27 358.03 325.88 355.00 331.00
C 354.34 332.11 353.77 332.98 353.00 334.00
C 350.97 336.70 349.13 339.52 347.00 342.00
C 345.95 343.23 344.99 344.79 344.00 346.00
C 340.94 349.73 337.12 354.49 333.00 357.00
C 332.52 357.29 331.35 357.67 331.00 358.00
C 324.68 363.90 318.01 367.50 311.00 372.00
C 309.95 372.67 309.15 373.36 308.00 374.00
C 293.42 382.12 276.91 387.41 260.00 389.00
C 256.31 389.35 249.46 389.50 246.00 389.00 C 242.54 388.50 234.10 390.97 232.00 388.00
C 219.32 401.72 196.98 403.82 180.00 407.00 C 163.01 410.18 133.78 401.17 134.00 384.00
C 134.06 384.17 131.85 383.38 132.00 380.00 C 132.15 376.62 133.47 375.62 134.00 374.00
C 134.31 370.07 136.27 366.89 135.00 363.00
C 138.50 363.86 136.88 360.72 139.00 359.00
C 139.63 358.01 140.33 356.89 141.00 356.00
C 143.03 353.32 145.83 351.35 148.00 349.00
C 149.00 347.70 150.21 346.39 151.00 345.00
C 147.76 341.98 145.07 337.99 143.00 334.00
C 142.50 333.15 142.12 333.32 142.00 332.00
C 141.66 331.46 140.45 330.60 140.00 330.00
C 138.94 328.60 138.54 327.80 138.00 326.00
C 137.39 325.01 136.61 324.10 136.00 323.00
C 127.68 308.06 123.52 293.11 121.00 276.00
C 120.78 274.51 120.23 273.39 120.00 272.00
C 118.75 264.37 120.14 255.27 121.00 248.00
C 122.20 237.83 123.99 224.99 127.93 215.93 C 131.86 206.87 135.35 196.78 141.75 189.75 C 148.15 182.73 151.34 172.23 160.00 168.00
C 160.40 167.80 161.00 168.00 161.00 168.00
C 165.05 162.20 171.36 157.79 177.00 154.00
C 178.32 153.11 179.83 152.73 181.00 152.00
C 182.26 151.22 183.55 149.77 185.00 149.00
C 185.39 148.79 186.00 149.00 186.00 149.00
C 186.26 148.88 186.65 148.03 187.00 148.00
C 187.50 147.95 188.00 148.00 188.00 148.00
C 199.31 138.93 218.78 135.59 233.00 134.00
C 242.92 132.89 253.09 132.82 263.00 134.00 Z"/>
</g>
<g fill="#0049BB" fill-opacity="0.38" stroke="None"><path d="
M 233.00 134.00 
C 241.29 134.49 254.99 137.41 263.00 134.00
C 253.09 132.82 242.92 132.89 233.00 134.00 Z"/>
</g>
<g fill="#1E65C3" fill-opacity="0.99" stroke="None"><path d="
M 188.00 148.00 
C 189.27 149.22 185.11 152.41 185.00 149.00
C 183.55 149.77 182.26 151.22 181.00 152.00
C 180.80 152.21 180.87 152.78 179.30 154.30 C 177.73 155.83 176.50 154.16 177.00 154.00
C 171.36 157.79 165.05 162.20 161.00 168.00
C 162.49 169.42 157.37 172.97 156.00 174.00
C 155.73 171.25 159.29 170.32 160.00 168.00
C 151.34 172.23 148.15 182.73 141.75 189.75 C 135.35 196.78 131.86 206.87 127.93 215.93 C 123.99 224.99 122.20 237.83 121.00 248.00
C 121.46 253.99 122.00 261.31 122.00 268.00
C 122.00 270.64 121.08 274.14 121.00 276.00
C 123.52 293.11 127.68 308.06 136.00 323.00
C 136.49 323.53 137.56 324.54 138.00 326.00
C 138.54 327.80 138.94 328.60 140.00 330.00
C 140.60 330.61 141.82 330.02 142.00 332.00
C 142.12 333.32 142.50 333.15 143.00 334.00
C 146.44 335.61 149.64 342.23 153.00 346.00
C 156.61 343.08 160.85 341.08 164.00 338.00
C 140.81 334.26 144.42 303.60 165.00 298.00
C 160.13 293.35 151.81 290.39 150.00 283.00
C 162.13 280.99 171.60 283.00 178.75 292.25 C 185.91 301.49 197.85 300.68 207.68 297.68 C 217.51 294.68 219.18 278.16 232.00 283.00
C 224.54 294.56 212.04 297.83 200.78 302.78 C 189.52 307.73 165.83 291.53 160.70 305.70 C 155.56 319.86 179.31 322.32 192.00 322.00 C 204.69 321.68 224.96 324.38 239.01 325.99 C 253.05 327.61 261.08 344.82 255.67 357.67 C 250.27 370.52 243.39 378.15 233.00 387.00
C 242.19 385.68 251.99 388.30 260.00 389.00
C 276.91 387.41 293.42 382.12 308.00 374.00
C 308.45 373.59 309.76 372.44 311.00 372.00
C 318.01 367.50 324.68 363.90 331.00 358.00
C 334.29 352.91 342.38 345.46 347.00 342.00
C 349.13 339.52 350.97 336.70 353.00 334.00
C 353.47 332.91 354.65 331.35 355.00 331.00
C 358.03 325.88 361.09 320.27 364.00 315.00
C 364.58 312.65 365.32 312.98 366.00 312.00
C 371.14 299.58 372.71 287.23 375.00 274.00
C 374.86 272.59 374.06 270.06 374.00 268.00
C 373.86 263.02 373.90 257.98 374.00 253.00
C 374.05 250.73 374.94 247.51 375.00 246.00
C 372.21 227.00 366.34 211.41 357.00 195.00
C 355.99 193.91 353.77 191.00 353.00 189.00
C 351.70 187.08 350.47 184.90 349.00 183.00
C 344.88 179.91 338.32 173.33 334.00 168.00
C 336.75 167.73 337.68 171.29 340.00 172.00
C 334.07 165.06 326.25 159.92 319.00 155.00
C 316.90 154.20 314.01 151.93 313.00 151.00
C 304.29 146.04 295.59 142.28 286.00 139.00
C 287.13 139.18 280.27 139.30 284.00 138.00
C 279.03 136.74 273.95 136.22 269.00 135.00
C 267.83 135.04 266.34 137.26 265.00 135.00
C 264.78 134.87 265.00 134.00 265.00 134.00
C 264.50 134.02 263.49 134.06 263.00 134.00
C 254.99 137.41 241.29 134.49 233.00 134.00
C 218.78 135.59 199.31 138.93 188.00 148.00 Z"/>
</g>
<g fill="#0055C2" fill-opacity="0.08" stroke="None"><path d="
M 265.00 135.00 
C 265.98 135.59 267.94 134.55 269.00 135.00
C 267.79 134.70 266.86 133.94 265.00 134.00
C 265.00 134.00 264.78 134.87 265.00 135.00 Z"/>
</g>
<g fill="#0553BE" fill-opacity="0.67" stroke="None"><path d="
M 269.00 135.00 
C 267.94 134.55 265.98 135.59 265.00 135.00
C 266.34 137.26 267.83 135.04 269.00 135.00 Z"/>
</g>
<g fill="#004AC9" fill-opacity="0.45" stroke="None"><path d="
M 286.00 139.00 
C 285.41 138.80 284.92 138.24 284.00 138.00
C 280.27 139.30 287.13 139.18 286.00 139.00 Z"/>
</g>
<g fill="#2266CC" fill-opacity="0.06" stroke="None"><path d="
M 186.00 149.00 
C 186.35 148.97 186.74 148.12 187.00 148.00
C 186.65 148.03 186.26 148.88 186.00 149.00 Z"/>
</g>
<g fill="#0E5AC1" fill-opacity="0.54" stroke="None"><path d="
M 186.00 149.00 
C 186.00 149.00 185.39 148.79 185.00 149.00
C 185.11 152.41 189.27 149.22 188.00 148.00
C 188.00 148.00 187.50 147.95 187.00 148.00
C 186.74 148.12 186.35 148.97 186.00 149.00 Z"/>
</g>
<g fill="#0955BF" fill-opacity="0.46" stroke="None"><path d="
M 319.00 155.00 
C 317.09 153.70 315.07 152.18 313.00 151.00
C 314.01 151.93 316.90 154.20 319.00 155.00 Z"/>
</g>
<g fill="#1160C9" fill-opacity="0.46" stroke="None"><path d="
M 177.00 154.00 
C 176.50 154.16 177.73 155.83 179.30 154.30 C 180.87 152.78 180.80 152.21 181.00 152.00
C 179.83 152.73 178.32 153.11 177.00 154.00 Z"/>
</g>
<g fill="#0253BD" fill-opacity="0.63" stroke="None"><path d="
M 161.00 168.00 
C 161.00 168.00 160.40 167.80 160.00 168.00
C 159.29 170.32 155.73 171.25 156.00 174.00
C 157.37 172.97 162.49 169.42 161.00 168.00 Z"/>
</g>
<g fill="#0A56BD" fill-opacity="0.53" stroke="None"><path d="
M 349.00 183.00 
C 346.14 179.31 343.13 175.67 340.00 172.00
C 337.68 171.29 336.75 167.73 334.00 168.00
C 338.32 173.33 344.88 179.91 349.00 183.00 Z"/>
</g>
<g fill="#000000" fill-opacity="1.00" stroke="None"><path d="
M 291.00 254.00 
C 299.50 254.34 312.42 256.05 315.70 247.70 C 318.97 239.34 323.72 236.30 326.75 228.75 C 329.77 221.19 335.27 217.42 338.08 210.08 C 340.88 202.73 346.94 198.88 349.07 191.07 C 351.20 183.27 333.77 186.26 326.00 186.00 C 318.23 185.74 304.83 186.14 296.00 186.00 C 287.17 185.86 275.13 186.10 266.00 186.00
C 266.49 196.53 259.62 208.89 264.00 218.00
C 269.32 187.29 302.88 187.88 328.00 190.00
C 316.92 211.87 303.08 232.51 291.00 254.00 Z"/>
</g>
<g fill="#0042A9" fill-opacity="0.47" stroke="None"><path d="
M 357.00 195.00 
C 355.80 192.89 354.34 190.98 353.00 189.00
C 353.77 191.00 355.99 193.91 357.00 195.00 Z"/>
</g>
<g fill="#000000" fill-opacity="1.00" stroke="None"><path d="
M 214.00 219.00 
C 216.74 208.26 230.51 209.79 237.93 214.07 C 245.34 218.35 264.31 211.21 259.75 201.25 C 255.20 191.29 237.41 198.48 230.70 200.69 C 223.98 202.91 215.67 211.06 211.00 217.00
C 183.20 207.79 148.83 224.19 144.00 254.00
C 149.67 254.00 155.33 254.00 161.00 254.00
C 161.44 245.85 161.92 235.34 166.75 228.75 C 171.58 222.16 178.32 218.26 186.00 218.00 C 193.67 217.74 202.78 220.88 207.75 227.25 C 212.73 233.62 217.35 236.95 219.07 245.93 C 220.80 254.90 231.63 255.49 241.00 254.00
C 240.43 238.51 229.48 222.72 214.00 219.00 Z"/>
</g>
<g fill="#004AC4" fill-opacity="0.50" stroke="None"><path d="
M 374.00 253.00 
C 374.11 252.56 375.97 250.35 376.00 250.00
C 375.77 248.61 375.22 247.49 375.00 246.00
C 374.94 247.51 374.05 250.73 374.00 253.00 Z"/>
</g>
<g fill="#0042B9" fill-opacity="0.36" stroke="None"><path d="
M 120.00 272.00 
C 120.01 271.35 121.88 268.64 122.00 268.00
C 122.00 261.31 121.46 253.99 121.00 248.00
C 120.14 255.27 118.75 264.37 120.00 272.00 Z"/>
</g>
<g fill="#0045B8" fill-opacity="0.34" stroke="None"><path d="
M 374.00 253.00 
C 373.90 257.98 373.86 263.02 374.00 268.00
C 374.10 268.50 376.03 271.64 376.00 272.00
C 377.24 266.16 376.97 255.90 376.00 250.00
C 375.97 250.35 374.11 252.56 374.00 253.00 Z"/>
</g>
<g fill="#000104" fill-opacity="1.00" stroke="None"><path d="
M 229.00 260.00 
C 224.95 259.93 220.69 260.44 217.00 259.00
C 216.89 263.35 222.26 261.71 225.00 262.00
C 223.05 267.11 219.20 271.42 216.00 276.00
C 220.51 275.41 226.25 277.22 230.00 275.00
C 227.65 272.75 223.17 274.61 220.00 274.00
C 222.95 269.28 226.43 264.96 229.00 260.00 Z"/>
</g>
<g fill="#01050F" fill-opacity="1.00" stroke="None"><path d="
M 240.00 259.00 
C 235.92 263.50 234.73 270.43 232.00 276.00
C 236.21 271.25 241.82 271.22 246.00 276.00
C 244.97 270.00 240.63 265.07 240.00 259.00 Z"/>
</g>
<g fill="#01040E" fill-opacity="1.00" stroke="None"><path d="
M 289.00 259.00 
C 285.28 263.86 284.04 270.51 281.00 276.00
C 284.90 272.18 291.26 270.12 295.00 276.00
C 294.36 269.90 290.03 264.98 289.00 259.00 Z"/>
</g>
<g fill="#133E7A" fill-opacity="1.00" stroke="None"><path d="
M 314.00 276.00 
C 313.68 272.45 312.61 262.31 315.00 260.00
C 315.26 259.75 316.00 260.00 316.00 260.00
C 312.85 256.76 311.60 273.67 314.00 276.00 Z"/>
</g>
<g fill="#01050F" fill-opacity="1.00" stroke="None"><path d="
M 327.00 259.00 
C 322.92 263.50 321.73 270.43 319.00 276.00
C 323.21 271.25 328.82 271.22 333.00 276.00
C 331.97 270.00 327.63 265.07 327.00 259.00 Z"/>
</g>
<g fill="#000207" fill-opacity="1.00" stroke="None"><path d="
M 158.00 261.00 
C 150.65 256.79 140.91 264.95 146.75 273.25 C 152.60 281.54 166.90 269.17 154.00 268.00
C 154.13 270.89 158.67 270.00 157.00 274.00
C 144.01 276.59 146.88 258.21 158.00 261.00 Z"/>
</g>
<g fill="#010714" fill-opacity="1.00" stroke="None"><path d="
M 175.00 276.00 
C 168.67 270.24 177.61 256.54 163.00 260.00
C 164.12 264.89 160.63 273.52 165.00 276.00
C 166.32 265.31 169.49 274.61 175.00 276.00 Z"/>
</g>
<g fill="#01050F" fill-opacity="1.00" stroke="None"><path d="
M 189.00 261.00 
C 186.32 258.73 181.50 260.62 178.00 260.00
C 178.00 265.33 178.00 270.67 178.00 276.00
C 181.51 275.45 186.24 277.16 189.00 275.00
C 187.30 272.81 183.52 274.56 181.00 274.00
C 178.98 267.78 185.07 269.79 188.00 268.00
C 185.21 266.07 178.83 268.28 181.00 262.00
C 183.52 261.53 187.23 263.03 189.00 261.00 Z"/>
</g>
<g fill="#000206" fill-opacity="1.00" stroke="None"><path d="
M 205.00 261.00 
C 197.91 256.78 187.24 264.63 193.75 273.25 C 200.26 281.87 214.11 267.95 200.00 268.00
C 200.84 267.91 209.07 277.02 199.08 273.92 C 189.08 270.83 196.81 258.71 205.00 261.00 Z"/>
</g>
<g fill="#01050F" fill-opacity="1.00" stroke="None"><path d="
M 261.00 261.00 
C 255.20 256.81 247.49 262.39 248.08 268.92 C 248.66 275.46 258.62 279.31 261.00 273.00
C 256.19 274.65 251.61 274.28 251.00 268.00 C 250.40 261.73 256.73 262.04 261.00 261.00 Z"/>
</g>
<g fill="#000001" fill-opacity="1.00" stroke="None"><path d="
M 267.00 267.00 
C 266.56 264.80 267.96 261.45 266.00 260.00
C 264.30 264.19 264.39 271.74 266.00 276.00
C 264.62 266.58 278.39 266.52 277.00 276.00
C 278.70 271.81 278.61 264.26 277.00 260.00
C 276.77 266.00 273.74 268.52 267.00 267.00 Z"/>
</g>
<g fill="#000309" fill-opacity="1.00" stroke="None"><path d="
M 306.00 269.00 
C 313.00 264.57 305.45 257.13 299.00 260.00
C 299.61 265.18 297.75 271.58 300.00 276.00
C 301.10 265.47 305.09 274.12 310.00 276.00
C 309.04 273.43 306.99 271.58 306.00 269.00 Z"/>
</g>
<g fill="#000000" fill-opacity="1.00" stroke="None"><path d="
M 314.00 276.00 
C 314.00 276.00 314.74 276.25 315.00 276.00
C 315.48 270.71 314.52 265.29 315.00 260.00
C 312.61 262.31 313.68 272.45 314.00 276.00 Z"/>
</g>
<g fill="#07172C" fill-opacity="1.00" stroke="None"><path d="
M 315.00 276.00 
C 317.39 273.69 316.32 263.55 316.00 260.00
C 316.00 260.00 315.26 259.75 315.00 260.00
C 314.52 265.29 315.48 270.71 315.00 276.00 Z"/>
</g>
<g fill="#010715" fill-opacity="1.00" stroke="None"><path d="
M 339.00 260.00 
C 334.11 260.23 334.21 275.79 339.00 276.00
C 335.86 265.79 349.94 267.45 348.00 276.00
C 349.70 271.81 349.61 264.26 348.00 260.00
C 349.90 268.53 335.85 270.21 339.00 260.00 Z"/>
</g>
<g fill="#1D60BA" fill-opacity="1.00" stroke="None"><path d="
M 170.00 262.00 
C 166.29 259.98 164.04 266.24 166.99 267.99 C 169.94 269.74 172.97 263.62 170.00 262.00 Z"/>
</g>
<g fill="#1D62BD" fill-opacity="1.00" stroke="None"><path d="
M 305.00 262.00 
C 301.29 259.98 299.04 266.24 301.99 267.99 C 304.94 269.74 307.97 263.62 305.00 262.00 Z"/>
</g>
<g fill="#1955A5" fill-opacity="1.00" stroke="None"><path d="
M 290.00 270.00 
C 290.04 267.86 289.29 265.41 288.00 264.00
C 287.21 266.91 284.32 271.29 290.00 270.00 Z"/>
</g>
<g fill="#1A56A6" fill-opacity="1.00" stroke="None"><path d="
M 240.00 265.00 
C 237.27 264.76 237.75 268.29 237.00 270.00
C 241.24 271.13 241.39 267.78 240.00 265.00 Z"/>
</g>
<g fill="#1A56A6" fill-opacity="1.00" stroke="None"><path d="
M 327.00 265.00 
C 324.27 264.76 324.75 268.29 324.00 270.00
C 328.24 271.13 328.39 267.78 327.00 265.00 Z"/>
</g>
<g fill="#0038B0" fill-opacity="0.51" stroke="None"><path d="
M 120.00 272.00 
C 120.23 273.39 120.78 274.51 121.00 276.00
C 121.08 274.14 122.00 270.64 122.00 268.00
C 121.88 268.64 120.01 271.35 120.00 272.00 Z"/>
</g>
<g fill="#0041C3" fill-opacity="0.53" stroke="None"><path d="
M 375.00 274.00 
C 375.15 273.14 375.83 272.81 376.00 272.00
C 376.03 271.64 374.10 268.50 374.00 268.00
C 374.06 270.06 374.86 272.59 375.00 274.00 Z"/>
</g>
<g fill="#000000" fill-opacity="0.99" stroke="None"><path d="
M 153.00 346.00 
C 151.63 347.11 150.96 348.47 149.00 349.00
C 147.24 353.21 141.64 355.67 139.00 359.00
C 136.88 360.72 138.50 363.86 135.00 363.00
C 136.27 366.89 134.31 370.07 134.00 374.00
C 133.74 377.29 134.04 380.69 134.00 384.00
C 133.78 401.17 163.01 410.18 180.00 407.00 C 196.98 403.82 219.32 401.72 232.00 388.00
C 232.24 387.74 232.75 387.25 233.00 387.00
C 243.39 378.15 250.27 370.52 255.67 357.67 C 261.08 344.82 253.05 327.61 239.01 325.99 C 224.96 324.38 204.69 321.68 192.00 322.00 C 179.31 322.32 155.56 319.86 160.70 305.70 C 165.83 291.53 189.52 307.73 200.78 302.78 C 212.04 297.83 224.54 294.56 232.00 283.00
C 219.18 278.16 217.51 294.68 207.68 297.68 C 197.85 300.68 185.91 301.49 178.75 292.25 C 171.60 283.00 162.13 280.99 150.00 283.00
C 151.81 290.39 160.13 293.35 165.00 298.00
C 144.42 303.60 140.81 334.26 164.00 338.00
C 160.85 341.08 156.61 343.08 153.00 346.00
M 226.00 387.00 
C 224.67 387.73 223.30 388.24 222.00 389.00
C 220.76 389.72 219.36 390.33 218.00 391.00
C 216.66 391.66 215.62 392.46 214.00 393.00
C 211.52 393.83 208.57 393.80 207.00 394.00
C 204.98 394.64 203.18 394.70 201.00 395.00
C 199.96 395.49 199.95 397.72 198.00 397.00
C 192.31 397.67 185.20 399.21 180.00 397.00
C 179.84 397.23 178.50 397.01 178.00 397.00
C 174.96 396.92 169.90 396.48 168.00 394.00
C 167.82 393.76 167.00 394.00 167.00 394.00
C 165.18 393.76 163.63 392.86 162.00 392.00
C 158.81 390.32 156.00 388.09 154.00 385.00
C 153.30 383.92 152.26 382.25 152.00 381.00
C 151.90 380.52 152.11 379.47 152.00 379.00
C 148.12 375.35 148.32 368.31 150.00 363.00
C 151.22 359.13 154.00 355.49 156.00 352.00
C 156.22 351.62 155.85 350.45 156.00 350.00
C 161.88 332.92 187.03 340.38 200.00 341.00 C 212.98 341.61 239.36 338.84 246.77 352.23 C 254.18 365.62 236.08 381.50 226.00 387.00 Z"/>
</g>
<g fill="#000000" fill-opacity="1.00" stroke="None"><path d="
M 295.00 283.00 
C 286.27 282.78 273.11 280.71 269.77 289.77 C 266.44 298.83 260.81 300.98 259.00 310.00
C 290.00 310.00 321.00 310.00 352.00 310.00
C 352.00 301.00 352.00 292.00 352.00 283.00
C 344.57 285.05 345.19 294.62 337.75 299.75 C 330.31 304.88 322.73 306.76 313.00 306.00 C 303.27 305.24 291.88 306.57 282.00 306.00
C 285.64 298.10 290.77 290.74 295.00 283.00 Z"/>
</g>
<g fill="#0357C9" fill-opacity="0.41" stroke="None"><path d="
M 364.00 315.00 
C 364.50 314.09 365.50 313.20 366.00 312.00
C 365.32 312.98 364.58 312.65 364.00 315.00 Z"/>
</g>
<g fill="#005CB5" fill-opacity="0.43" stroke="None"><path d="
M 136.00 323.00 
C 136.61 324.10 137.39 325.01 138.00 326.00
C 137.56 324.54 136.49 323.53 136.00 323.00 Z"/>
</g>
<g fill="#0350BB" fill-opacity="0.47" stroke="None"><path d="
M 140.00 330.00 
C 140.45 330.60 141.66 331.46 142.00 332.00
C 141.82 330.02 140.60 330.61 140.00 330.00 Z"/>
</g>
<g fill="#0D5FC9" fill-opacity="0.42" stroke="None"><path d="
M 353.00 334.00 
C 353.77 332.98 354.34 332.11 355.00 331.00
C 354.65 331.35 353.47 332.91 353.00 334.00 Z"/>
</g>
<g fill="#255BAA" fill-opacity="0.44" stroke="None"><path d="
M 143.00 334.00 
C 145.07 337.99 147.76 341.98 151.00 345.00
C 150.21 346.39 149.00 347.70 148.00 349.00
C 148.16 348.77 149.00 349.00 149.00 349.00
C 150.96 348.47 151.63 347.11 153.00 346.00
C 149.64 342.23 146.44 335.61 143.00 334.00 Z"/>
</g>
<g fill="#1E65C3" fill-opacity="0.98" stroke="None"><path d="
M 156.00 350.00 
C 159.22 349.01 161.77 355.63 162.00 356.00
C 163.06 357.09 163.79 358.08 165.00 359.00
C 164.34 358.72 165.37 357.08 166.75 358.27 C 168.14 359.46 168.02 361.02 168.00 361.00
C 174.34 366.21 180.66 370.39 188.00 374.00
C 187.84 373.95 193.27 374.44 189.00 375.00
C 194.62 379.85 211.36 386.45 219.00 386.00
C 219.87 385.95 220.07 385.85 221.00 386.00
C 221.93 386.15 225.79 387.01 226.00 387.00
C 236.08 381.50 254.18 365.62 246.77 352.23 C 239.36 338.84 212.98 341.61 200.00 341.00 C 187.03 340.38 161.88 332.92 156.00 350.00 Z"/>
</g>
<g fill="#0D5AC0" fill-opacity="0.62" stroke="None"><path d="
M 331.00 358.00 
C 331.35 357.67 332.52 357.29 333.00 357.00
C 336.61 353.63 340.62 349.51 344.00 346.00
C 344.99 344.79 345.95 343.23 347.00 342.00
C 342.38 345.46 334.29 352.91 331.00 358.00 Z"/>
</g>
<g fill="#105BC2" fill-opacity="0.07" stroke="None"><path d="
M 333.00 357.00 
C 337.12 354.49 340.94 349.73 344.00 346.00
C 340.62 349.51 336.61 353.63 333.00 357.00 Z"/>
</g>
<g fill="#031534" fill-opacity="0.12" stroke="None"><path d="
M 141.00 356.00 
C 143.23 353.58 146.09 351.74 148.00 349.00
C 145.83 351.35 143.03 353.32 141.00 356.00 Z"/>
</g>
<g fill="#010619" fill-opacity="0.47" stroke="None"><path d="
M 141.00 356.00 
C 140.33 356.89 139.63 358.01 139.00 359.00
C 141.64 355.67 147.24 353.21 149.00 349.00
C 149.00 349.00 148.16 348.77 148.00 349.00
C 146.09 351.74 143.23 353.58 141.00 356.00 Z"/>
</g>
<g fill="#265BA3" fill-opacity="0.47" stroke="None"><path d="
M 156.00 352.00 
C 157.58 353.27 160.36 354.32 162.00 356.00
C 161.77 355.63 159.22 349.01 156.00 350.00
C 155.85 350.45 156.22 351.62 156.00 352.00 Z"/>
</g>
<g fill="#000000" fill-opacity="0.00" stroke="None"><path d="
M 150.00 363.00 
C 149.00 368.56 150.82 373.95 152.00 379.00
C 152.11 379.47 151.90 380.52 152.00 381.00
C 152.07 381.17 153.77 382.69 154.00 383.00
C 157.06 386.09 166.83 390.70 168.00 394.00
C 170.55 395.01 174.21 394.70 177.00 395.00
C 177.98 395.11 179.76 394.53 180.00 396.00
C 185.76 395.48 192.36 397.24 198.00 396.00
C 198.22 394.68 200.08 395.12 201.00 395.00
C 203.18 394.70 204.98 394.64 207.00 394.00
C 209.73 393.14 212.94 391.87 216.00 391.00
C 216.23 390.72 216.69 390.20 217.00 390.00
C 218.28 389.18 219.44 388.89 221.00 389.00
C 220.50 387.81 220.26 386.74 219.00 386.00
C 211.36 386.45 194.62 379.85 189.00 375.00
C 188.73 374.76 188.27 374.13 188.00 374.00
C 180.66 370.39 174.34 366.21 168.00 361.00
C 167.09 360.26 165.89 359.68 165.00 359.00
C 163.79 358.08 163.06 357.09 162.00 356.00
C 160.36 354.32 157.58 353.27 156.00 352.00
C 154.00 355.49 151.22 359.13 150.00 363.00 Z"/>
</g>
<g fill="#0F58BB" fill-opacity="0.51" stroke="None"><path d="
M 165.00 359.00 
C 165.89 359.68 167.09 360.26 168.00 361.00
C 168.02 361.02 168.14 359.46 166.75 358.27 C 165.37 357.08 164.34 358.72 165.00 359.00 Z"/>
</g>
<g fill="#2C2C2D" fill-opacity="0.51" stroke="None"><path d="
M 152.00 379.00 
C 150.82 373.95 149.00 368.56 150.00 363.00
C 148.32 368.31 148.12 375.35 152.00 379.00 Z"/>
</g>
<g fill="#0352BD" fill-opacity="0.47" stroke="None"><path d="
M 308.00 374.00 
C 309.15 373.36 309.95 372.67 311.00 372.00
C 309.76 372.44 308.45 373.59 308.00 374.00 Z"/>
</g>
<g fill="#105CC1" fill-opacity="0.56" stroke="None"><path d="
M 188.00 374.00 
C 188.27 374.13 188.73 374.76 189.00 375.00
C 193.27 374.44 187.84 373.95 188.00 374.00 Z"/>
</g>
<g fill="#000000" fill-opacity="0.39" stroke="None"><path d="
M 134.00 384.00 
C 134.04 380.69 133.74 377.29 134.00 374.00
C 133.47 375.62 132.15 376.62 132.00 380.00 C 131.85 383.38 134.06 384.17 134.00 384.00 Z"/>
</g>
<g fill="#434343" fill-opacity="0.49" stroke="None"><path d="
M 154.00 385.00 
C 155.26 386.64 158.25 388.94 160.00 390.00
C 157.90 388.04 155.71 385.24 154.00 383.00
C 153.77 382.69 152.07 381.17 152.00 381.00
C 152.26 382.25 153.30 383.92 154.00 385.00 Z"/>
</g>
<g fill="#454545" fill-opacity="0.17" stroke="None"><path d="
M 160.00 390.00 
C 160.67 390.41 161.32 390.65 162.00 391.00
C 163.86 391.95 165.51 392.80 167.00 394.00
C 167.00 394.00 167.82 393.76 168.00 394.00
C 166.83 390.70 157.06 386.09 154.00 383.00
C 155.71 385.24 157.90 388.04 160.00 390.00 Z"/>
</g>
<g fill="#393939" fill-opacity="0.87" stroke="None"><path d="
M 162.00 392.00 
C 161.75 391.80 162.00 391.00 162.00 391.00
C 161.32 390.65 160.67 390.41 160.00 390.00
C 158.25 388.94 155.26 386.64 154.00 385.00
C 156.00 388.09 158.81 390.32 162.00 392.00 Z"/>
</g>
<g fill="#5185C8" fill-opacity="0.36" stroke="None"><path d="
M 219.00 386.00 
C 220.26 386.74 220.50 387.81 221.00 389.00
C 221.50 389.04 222.00 389.00 222.00 389.00
C 222.35 388.41 221.38 386.41 221.00 386.00
C 220.07 385.85 219.87 385.95 219.00 386.00 Z"/>
</g>
<g fill="#9DB7DA" fill-opacity="0.81" stroke="None"><path d="
M 222.00 389.00 
C 223.30 388.24 224.67 387.73 226.00 387.00
C 225.79 387.01 221.93 386.15 221.00 386.00
C 221.38 386.41 222.35 388.41 222.00 389.00 Z"/>
</g>
<g fill="#044DB4" fill-opacity="0.41" stroke="None"><path d="
M 232.00 388.00 
C 234.10 390.97 242.54 388.50 246.00 389.00 C 249.46 389.50 256.31 389.35 260.00 389.00
C 251.99 388.30 242.19 385.68 233.00 387.00
C 232.75 387.25 232.24 387.74 232.00 388.00 Z"/>
</g>
<g fill="#506581" fill-opacity="0.51" stroke="None"><path d="
M 217.00 390.00 
C 217.22 390.04 217.65 390.94 218.00 391.00
C 219.36 390.33 220.76 389.72 222.00 389.00
C 222.00 389.00 221.50 389.04 221.00 389.00
C 219.44 388.89 218.28 389.18 217.00 390.00 Z"/>
</g>
<g fill="#414D5F" fill-opacity="0.72" stroke="None"><path d="
M 216.00 391.00 
C 215.64 391.44 214.46 392.75 214.00 393.00
C 215.62 392.46 216.66 391.66 218.00 391.00
C 217.65 390.94 217.22 390.04 217.00 390.00
C 216.69 390.20 216.23 390.72 216.00 391.00 Z"/>
</g>
<g fill="#434343" fill-opacity="0.66" stroke="None"><path d="
M 162.00 392.00 
C 163.63 392.86 165.18 393.76 167.00 394.00
C 165.51 392.80 163.86 391.95 162.00 391.00
C 162.00 391.00 161.75 391.80 162.00 392.00 Z"/>
</g>
<g fill="#424D5E" fill-opacity="0.43" stroke="None"><path d="
M 207.00 394.00 
C 208.57 393.80 211.52 393.83 214.00 393.00
C 214.46 392.75 215.64 391.44 216.00 391.00
C 212.94 391.87 209.73 393.14 207.00 394.00 Z"/>
</g>
<g fill="#373737" fill-opacity="0.58" stroke="None"><path d="
M 178.00 397.00 
C 177.59 396.84 177.26 395.12 177.00 395.00
C 174.21 394.70 170.55 395.01 168.00 394.00
C 169.90 396.48 174.96 396.92 178.00 397.00 Z"/>
</g>
<g fill="#646464" fill-opacity="0.28" stroke="None"><path d="
M 178.00 397.00 
C 178.50 397.01 179.84 397.23 180.00 397.00
C 180.23 396.66 180.00 396.00 180.00 396.00
C 179.76 394.53 177.98 395.11 177.00 395.00
C 177.26 395.12 177.59 396.84 178.00 397.00 Z"/>
</g>
<g fill="#37383D" fill-opacity="0.32" stroke="None"><path d="
M 198.00 396.00 
C 197.92 396.49 198.00 397.00 198.00 397.00
C 199.95 397.72 199.96 395.49 201.00 395.00
C 200.08 395.12 198.22 394.68 198.00 396.00 Z"/>
</g>
<g fill="#5E5F5F" fill-opacity="0.67" stroke="None"><path d="
M 180.00 397.00 
C 185.20 399.21 192.31 397.67 198.00 397.00
C 198.00 397.00 197.92 396.49 198.00 396.00
C 192.36 397.24 185.76 395.48 180.00 396.00
C 180.00 396.00 180.23 396.66 180.00 397.00 Z"/>
</g>
</svg>